# xmcd CD database file
#
# Track frame offsets:
#	150
#	18181
#	33977
#	53015
#	71021
#	88043
#	107148
#	124593
#	141669
#	157033
#
# Disc length: 2366 seconds
#
# Revision: 0
# Processed by: cddbd v1.5.2PL0 Copyright (c) Steve Scherf et al.
# Submitted via: CDex 1.70beta2
#
DISCID=86093c0a
DTITLE=BELA - SILENCE
DYEAR=2002
DGENRE=New Age
TTITLE0=01-Baptism
TTITLE1=02-Out of my head
TTITLE2=03-A brand new life
TTITLE3=04-Silence
TTITLE4=05-Life is good to them
TTITLE5=06-Sitting Alone
TTITLE6=07-For sale
TTITLE7=08-Counting cows
TTITLE8=09-So safe
TTITLE9=10-It could be different
EXTD=YEAR: 2002
EXTT0=
EXTT1=
EXTT2=
EXTT3=
EXTT4=
EXTT5=
EXTT6=
EXTT7=
EXTT8=
EXTT9=
PLAYORDER=
